<svg xmlns="http://www.w3.org/2000/svg" xmlns:xlink="http://www.w3.org/1999/xlink" width="78" height="102.5" viewBox="0 0 78 102.5">
  <defs>
    <filter id="Icon_awesome-download" x="0" y="0" width="78" height="78" filterUnits="userSpaceOnUse">
      <feOffset dx="5" dy="5" input="SourceAlpha"/>
      <feGaussianBlur result="blur"/>
      <feFlood flood-opacity="0.161"/>
      <feComposite operator="in" in2="blur"/>
      <feComposite in="SourceGraphic"/>
    </filter>
  </defs>
  <g id="Component_20_1" data-name="Component 20 – 1" transform="translate(1.5 1.5)">
    <g transform="matrix(1, 0, 0, 1, -1.5, -1.5)" filter="url(#Icon_awesome-download)">
      <path id="Icon_awesome-download-2" data-name="Icon awesome-download" d="M29.531,0H40.469A3.273,3.273,0,0,1,43.75,3.281V26.25H55.74a2.729,2.729,0,0,1,1.928,4.662L36.873,51.721a2.649,2.649,0,0,1-3.732,0L12.318,30.912a2.729,2.729,0,0,1,1.928-4.662h12V3.281A3.273,3.273,0,0,1,29.531,0ZM70,51.406V66.719A3.273,3.273,0,0,1,66.719,70H3.281A3.273,3.273,0,0,1,0,66.719V51.406a3.273,3.273,0,0,1,3.281-3.281H23.338l6.7,6.7a7.006,7.006,0,0,0,9.926,0l6.7-6.7H66.719A3.273,3.273,0,0,1,70,51.406ZM53.047,63.438a2.734,2.734,0,1,0-2.734,2.734A2.742,2.742,0,0,0,53.047,63.438Zm8.75,0a2.734,2.734,0,1,0-2.734,2.734A2.742,2.742,0,0,0,61.8,63.438Z" transform="translate(1.5 1.5)" fill="#c4c4c4" stroke="#000" stroke-width="3"/>
    </g>
    <text id="RESUME" transform="translate(35 95)" fill="#c4c4c4" stroke="#000" stroke-width="1" font-size="16" font-family="Oswald" letter-spacing="0.027em"><tspan x="-25.152" y="0">RESUME</tspan></text>
  </g>
</svg>
