<svg id="Component_3_1" data-name="Component 3 – 1" xmlns="http://www.w3.org/2000/svg" xmlns:xlink="http://www.w3.org/1999/xlink" width="115" height="115" viewBox="0 0 115 115">
  <defs>
    <filter id="Rectangle_13" x="0" y="0" width="115" height="115" filterUnits="userSpaceOnUse">
      <feOffset dx="15" dy="15" input="SourceAlpha"/>
      <feGaussianBlur result="blur"/>
      <feFlood/>
      <feComposite operator="in" in2="blur"/>
      <feComposite in="SourceGraphic"/>
    </filter>
  </defs>
  <g transform="matrix(1, 0, 0, 1, 0, 0)" filter="url(#Rectangle_13)">
    <g id="Rectangle_13-2" data-name="Rectangle 13" fill="#fff" stroke="#000" stroke-width="10">
      <rect width="100" height="100" stroke="none"/>
      <rect x="5" y="5" width="90" height="90" fill="none"/>
    </g>
  </g>
  <path id="Icon_awesome-code" data-name="Icon awesome-code" d="M28.687,45.831l-6.274-1.586a1.064,1.064,0,0,1-.843-1.335L35.609.779A1.271,1.271,0,0,1,37.142.044L43.416,1.63a1.064,1.064,0,0,1,.843,1.335L30.219,45.1A1.268,1.268,0,0,1,28.687,45.831ZM16.962,35.777l4.474-4.158a.983.983,0,0,0-.082-1.541l-9.319-7.141L21.353,15.8a.976.976,0,0,0,.082-1.541L16.962,10.1a1.368,1.368,0,0,0-1.749-.045L.392,22.149a.978.978,0,0,0,0,1.568L15.213,35.822a1.357,1.357,0,0,0,1.749-.045Zm33.654.054L65.437,23.726a.978.978,0,0,0,0-1.568L50.616,10.044a1.38,1.38,0,0,0-1.749.045l-4.474,4.158a.983.983,0,0,0,.082,1.541l9.319,7.15-9.319,7.141a.976.976,0,0,0-.082,1.541l4.474,4.158A1.368,1.368,0,0,0,50.616,35.831Z" transform="translate(17.086 27.061)"/>
</svg>
