<svg id="Component_14_1" data-name="Component 14 – 1" xmlns="http://www.w3.org/2000/svg" xmlns:xlink="http://www.w3.org/1999/xlink" width="113" height="113" viewBox="0 0 113 113">
  <defs>
    <filter id="Rectangle_13" x="0" y="0" width="113" height="113" filterUnits="userSpaceOnUse">
      <feOffset dx="10" dy="10" input="SourceAlpha"/>
      <feGaussianBlur result="blur"/>
      <feFlood/>
      <feComposite operator="in" in2="blur"/>
      <feComposite in="SourceGraphic"/>
    </filter>
  </defs>
  <g id="Component_5_4" data-name="Component 5 – 4">
    <g id="Component_4_2" data-name="Component 4 – 2">
      <g id="Component_3_3" data-name="Component 3 – 3">
        <g transform="matrix(1, 0, 0, 1, 0, 0)" filter="url(#Rectangle_13)">
          <g id="Rectangle_13-2" data-name="Rectangle 13" fill="#dd7dff" stroke="#000" stroke-width="10">
            <rect width="103" height="103" stroke="none"/>
            <rect x="5" y="5" width="93" height="93" fill="none"/>
          </g>
        </g>
      </g>
    </g>
  </g>
  <path id="Icon_simple-email" data-name="Icon simple-email" d="M45.279,22.211a24.818,24.818,0,0,1-.8,5.383,15.577,15.577,0,0,1-2.093,4.727,11.044,11.044,0,0,1-3.548,3.359,10.014,10.014,0,0,1-5.181,1.278,7.511,7.511,0,0,1-3.747-.917,6.417,6.417,0,0,1-2.532-2.6,8.026,8.026,0,0,1-6.79,3.41,6.9,6.9,0,0,1-5.927-3.188,10.435,10.435,0,0,1-1.474-3.693,15.926,15.926,0,0,1-.192-4.817,22.378,22.378,0,0,1,1.467-5.9,16.037,16.037,0,0,1,2.712-4.52A11.475,11.475,0,0,1,20.9,11.857a10.4,10.4,0,0,1,4.535-1.007,14.1,14.1,0,0,1,2.712.232,11.1,11.1,0,0,1,2.105.632,11.383,11.383,0,0,1,1.744.92c.532.343,1.068.7,1.6,1.059L32.282,28.848a5.038,5.038,0,0,0,.039,1.774,2.482,2.482,0,0,0,.541,1.095,1.949,1.949,0,0,0,.878.571,3.26,3.26,0,0,0,3.085-.607,6.576,6.576,0,0,0,1.654-2.105,13.557,13.557,0,0,0,1.113-3.164,21.706,21.706,0,0,0,.487-3.939,25.176,25.176,0,0,0-.619-7.362,14.633,14.633,0,0,0-2.724-5.7,12.651,12.651,0,0,0-4.884-3.669,17.725,17.725,0,0,0-7.115-1.3A15.71,15.71,0,0,0,17.7,5.978a16.145,16.145,0,0,0-5.347,4.252,20.407,20.407,0,0,0-3.5,6.4A28.824,28.824,0,0,0,7.38,24.6a26.5,26.5,0,0,0,.752,8.131A14.686,14.686,0,0,0,11.1,38.555a12.4,12.4,0,0,0,5.034,3.5,19.31,19.31,0,0,0,6.947,1.161,23.793,23.793,0,0,0,4.559-.49c.752-.15,1.464-.331,2.144-.529a16.138,16.138,0,0,0,1.846-.662l.953,4.288a10.582,10.582,0,0,1-2.066,1.022,19.886,19.886,0,0,1-2.442.707,23.826,23.826,0,0,1-5.1.571,26.746,26.746,0,0,1-9.3-1.5A17.113,17.113,0,0,1,6.9,42.17a18.717,18.717,0,0,1-4.069-7.359A31.388,31.388,0,0,1,1.7,24.6a31.154,31.154,0,0,1,1.955-9.8A24.262,24.262,0,0,1,8.36,7a21.459,21.459,0,0,1,7.184-5.139A22.493,22.493,0,0,1,24.849,0a23.483,23.483,0,0,1,9.016,1.615,17.535,17.535,0,0,1,6.508,4.541,18.635,18.635,0,0,1,3.861,7.016A26.826,26.826,0,0,1,45.279,22.211ZM19.454,25.158a10.23,10.23,0,0,0,.529,5.073A2.72,2.72,0,0,0,22.6,31.945a2.89,2.89,0,0,0,.9-.165,3.2,3.2,0,0,0,1.031-.619A5.5,5.5,0,0,0,25.573,29.9a9.693,9.693,0,0,0,.962-2.135l1.028-11.776a6.145,6.145,0,0,0-1.6-.211,5.531,5.531,0,0,0-2.661.61,5.269,5.269,0,0,0-1.885,1.792,10.525,10.525,0,0,0-1.251,2.947,25,25,0,0,0-.71,4.03Z" transform="translate(27.779 27.362)"/>
</svg>
