<svg xmlns="http://www.w3.org/2000/svg" width="88.66" height="100" viewBox="0 0 88.66 100">
  <path id="Icon_awesome-node-js" data-name="Icon awesome-node-js" d="M44.359,100.285a7.773,7.773,0,0,1-3.85-1.032L28.266,92.01c-1.826-1.032-.933-1.389-.337-1.587a24.118,24.118,0,0,0,5.536-2.52.9.9,0,0,1,.913.079l9.406,5.576a1.149,1.149,0,0,0,1.131,0l36.65-21.153a1.175,1.175,0,0,0,.556-.992V29.107a1.182,1.182,0,0,0-.575-1.012L44.915,6.962a1.149,1.149,0,0,0-1.131,0L7.173,28.115A1.158,1.158,0,0,0,6.6,29.127V71.413a1.1,1.1,0,0,0,.575.972l10.041,5.794C22.671,80.9,26,77.7,26,74.469V32.719a1.05,1.05,0,0,1,1.072-1.052h4.643a1.063,1.063,0,0,1,1.072,1.052v41.77c0,7.263-3.969,11.43-10.854,11.43-2.123,0-3.79,0-8.433-2.3L3.9,78.08a7.716,7.716,0,0,1-3.85-6.687V29.107A7.74,7.74,0,0,1,3.9,22.42L40.51,1.267a8.035,8.035,0,0,1,7.7,0L84.859,22.44a7.716,7.716,0,0,1,3.85,6.687V71.413a7.764,7.764,0,0,1-3.85,6.687L48.209,99.253a7.717,7.717,0,0,1-3.85,1.032ZM73.945,58.594c0-7.917-5.358-10.021-16.609-11.509C45.947,45.577,44.8,44.8,44.8,42.144c0-2.2.972-5.139,9.406-5.139,7.521,0,10.3,1.627,11.45,6.707a1.062,1.062,0,0,0,1.032.833h4.762a1.036,1.036,0,0,0,.774-.337,1.1,1.1,0,0,0,.278-.814c-.734-8.751-6.548-12.819-18.3-12.819-10.457,0-16.688,4.405-16.688,11.807,0,8.017,6.211,10.239,16.232,11.231,12.005,1.171,12.938,2.937,12.938,5.3,0,4.088-3.294,5.834-11.013,5.834-9.7,0-11.827-2.441-12.541-7.263a1.05,1.05,0,0,0-1.052-.893H37.335a1.046,1.046,0,0,0-1.052,1.052c0,6.171,3.354,13.533,19.407,13.533,11.588-.02,18.256-4.6,18.256-12.581Z" transform="translate(-0.049 -0.285)" fill="#ebc30e"/>
</svg>
