<svg xmlns="http://www.w3.org/2000/svg" width="112.394" height="100" viewBox="0 0 112.394 100">
  <path id="Icon_simple-react" data-name="Icon simple-react" d="M56.2,41.966A10.017,10.017,0,1,0,66.214,51.983,10.017,10.017,0,0,0,56.2,41.966ZM28.136,71.91l-2.21-.562C9.45,67.185,0,60.118,0,51.965s9.45-15.22,25.925-19.383l2.21-.557.623,2.192a110.193,110.193,0,0,0,6.383,16.756l.473,1-.473,1a109.146,109.146,0,0,0-6.383,16.756ZM24.9,37.7C12.377,41.217,4.692,46.6,4.692,51.965S12.377,62.708,24.9,66.229a116.843,116.843,0,0,1,5.535-14.265A115.914,115.914,0,0,1,24.9,37.7ZM84.258,71.91l-.623-2.2a109.382,109.382,0,0,0-6.388-16.751l-.473-1,.473-1a109.679,109.679,0,0,0,6.388-16.756l.623-2.192,2.215.557c16.47,4.163,25.921,11.23,25.921,19.388s-9.45,15.22-25.921,19.383Zm-2.3-19.945a115.8,115.8,0,0,1,5.535,14.265c12.527-3.522,20.207-8.9,20.207-14.265S100.016,41.222,87.494,37.7A116.082,116.082,0,0,1,81.958,51.965ZM24.867,37.677l-.623-2.187C19.613,19.164,21.018,7.466,28.1,3.382c6.945-4.009,18.1.726,29.78,12.719l1.592,1.634L57.878,19.37A110.3,110.3,0,0,0,46.536,33.265l-.632.9-1.1.094a110.788,110.788,0,0,0-17.725,2.857ZM33.746,6.628a6.534,6.534,0,0,0-3.3.81c-4.655,2.683-5.479,12.012-2.271,24.6a117.648,117.648,0,0,1,15.14-2.346,116.357,116.357,0,0,1,9.61-11.914C45.618,10.665,38.7,6.628,33.746,6.628Zm44.906,95.357h0c-6.673,0-15.243-5.025-24.137-14.157l-1.592-1.634,1.592-1.634a110.191,110.191,0,0,0,11.338-13.9l.632-.9,1.1-.094A110.662,110.662,0,0,0,85.316,66.81l2.21-.557.628,2.192c4.622,16.316,3.222,28.019-3.859,32.1a11.146,11.146,0,0,1-5.643,1.442ZM59.47,86.151C66.776,93.265,73.693,97.3,78.647,97.3h0a6.517,6.517,0,0,0,3.3-.81c4.655-2.683,5.484-12.017,2.271-24.6a117.167,117.167,0,0,1-15.145,2.346,115.546,115.546,0,0,1-9.6,11.918ZM87.526,37.677l-2.21-.557a109.952,109.952,0,0,0-17.735-2.857l-1.1-.094-.632-.9A109.65,109.65,0,0,0,54.516,19.37l-1.592-1.634L54.516,16.1C66.2,4.113,77.341-.622,84.3,3.382c7.081,4.084,8.486,15.782,3.859,32.1ZM69.075,29.692A116.788,116.788,0,0,1,84.22,32.038c3.213-12.588,2.384-21.917-2.271-24.6C77.322,4.764,68.626,8.862,59.47,17.778a116.37,116.37,0,0,1,9.6,11.914ZM33.746,101.984a11.145,11.145,0,0,1-5.648-1.442c-7.081-4.079-8.486-15.777-3.854-32.1l.618-2.192,2.21.557A110.535,110.535,0,0,0,44.8,69.662l1.1.094.628.9a110.5,110.5,0,0,0,11.342,13.9l1.592,1.634-1.592,1.634c-8.888,9.132-17.458,14.157-24.122,14.157Zm-5.573-30.1c-3.213,12.588-2.384,21.921,2.271,24.6,4.622,2.637,13.314-1.428,22.479-10.34a117.067,117.067,0,0,1-9.61-11.918,116.962,116.962,0,0,1-15.14-2.346ZM56.2,74.827c-3.854,0-7.816-.169-11.783-.5l-1.1-.094-.632-.9Q39.316,68.5,36.359,63.4T30.9,52.962l-.468-1,.468-1q2.512-5.328,5.46-10.434c1.939-3.353,4.07-6.7,6.322-9.937l.632-.9,1.1-.094a139.484,139.484,0,0,1,23.57,0l1.1.094.628.9A140.519,140.519,0,0,1,81.495,50.967l.473,1-.473,1A138.619,138.619,0,0,1,69.707,73.333l-.628.9-1.1.094C64.017,74.659,60.051,74.827,56.2,74.827ZM45.908,69.751a136.02,136.02,0,0,0,20.582,0A135.836,135.836,0,0,0,76.774,51.965,133.866,133.866,0,0,0,66.485,34.178a135.955,135.955,0,0,0-20.577,0A133.36,133.36,0,0,0,35.619,51.965,136.344,136.344,0,0,0,45.908,69.751Z" transform="translate(0 -1.986)" fill="#ebc30e"/>
</svg>
