<svg xmlns="http://www.w3.org/2000/svg" xmlns:xlink="http://www.w3.org/1999/xlink" width="110.563" height="108.005" viewBox="0 0 110.563 108.005">
  <defs>
    <filter id="Icon_awesome-github" x="0" y="0" width="110.563" height="108.005" filterUnits="userSpaceOnUse">
      <feOffset dx="5" dy="5" input="SourceAlpha"/>
      <feGaussianBlur result="blur"/>
      <feFlood flood-opacity="0.161"/>
      <feComposite operator="in" in2="blur"/>
      <feComposite in="SourceGraphic"/>
    </filter>
  </defs>
  <g transform="matrix(1, 0, 0, 1, 0, 0)" filter="url(#Icon_awesome-github)">
    <path id="Icon_awesome-github-2" data-name="Icon awesome-github" d="M34.3,81.082c0,.414-.476.744-1.075.744-.682.062-1.158-.269-1.158-.744,0-.414.476-.744,1.075-.744C33.767,80.276,34.3,80.607,34.3,81.082Zm-6.431-.931c-.145.414.269.889.889,1.013a.97.97,0,0,0,1.282-.414c.124-.414-.269-.889-.889-1.075A1.061,1.061,0,0,0,27.874,80.152Zm9.14-.352c-.6.145-1.013.538-.951,1.013.062.414.6.682,1.22.538.6-.145,1.013-.538.951-.951C38.171,80.007,37.613,79.738,37.013,79.8ZM50.62.563C21.939.563,0,22.336,0,51.017a51.842,51.842,0,0,0,35.049,49.462c2.647.476,3.577-1.158,3.577-2.5,0-1.282-.062-8.354-.062-12.7,0,0-14.475,3.1-17.514-6.162,0,0-2.357-6.017-5.748-7.568,0,0-4.735-3.246.331-3.184A10.915,10.915,0,0,1,23.614,73.7c4.528,7.982,12.117,5.686,15.074,4.322A11.493,11.493,0,0,1,42,71.054C30.438,69.772,18.776,68.1,18.776,48.2c0-5.686,1.572-8.54,4.88-12.179-.538-1.344-2.3-6.886.538-14.04,4.322-1.344,14.268,5.583,14.268,5.583a48.85,48.85,0,0,1,25.971,0S74.379,20.62,78.7,21.985c2.833,7.175,1.075,12.7.538,14.04,3.308,3.66,5.335,6.514,5.335,12.179,0,19.954-12.179,21.546-23.738,22.849,1.9,1.634,3.515,4.735,3.515,9.595,0,6.968-.062,15.591-.062,17.287,0,1.344.951,2.978,3.577,2.5,20.678-6.865,34.7-26.488,34.7-49.42C102.563,22.336,79.3.563,50.62.563ZM20.1,71.881c-.269.207-.207.682.145,1.075.331.331.806.476,1.075.207.269-.207.207-.682-.145-1.075C20.843,71.757,20.368,71.612,20.1,71.881Zm-2.233-1.675c-.145.269.062.6.476.806a.615.615,0,0,0,.889-.145c.145-.269-.062-.6-.476-.806C18.341,69.937,18.01,70,17.866,70.206Zm6.7,7.361c-.331.269-.207.889.269,1.282.476.476,1.075.538,1.344.207.269-.269.145-.889-.269-1.282C25.455,77.3,24.834,77.236,24.565,77.567Zm-2.357-3.04c-.331.207-.331.744,0,1.22s.889.682,1.158.476a.943.943,0,0,0,0-1.282C23.077,74.465,22.539,74.259,22.208,74.527Z" transform="translate(1.5 0.94)" fill="#c4c4c4" stroke="#000" stroke-width="3"/>
  </g>
</svg>
