<svg xmlns="http://www.w3.org/2000/svg" xmlns:xlink="http://www.w3.org/1999/xlink" width="199.733" height="174.231" viewBox="0 0 199.733 174.231">
  <defs>
    <filter id="Path_3" x="117.993" y="0" width="58.766" height="58.766" filterUnits="userSpaceOnUse">
      <feOffset dx="5" dy="5" input="SourceAlpha"/>
      <feGaussianBlur result="blur"/>
      <feFlood/>
      <feComposite operator="in" in2="blur"/>
      <feComposite in="SourceGraphic"/>
    </filter>
    <filter id="Path_4" x="0.318" y="19.483" width="199.415" height="154.748" filterUnits="userSpaceOnUse">
      <feOffset dx="5" dy="5" input="SourceAlpha"/>
      <feGaussianBlur result="blur-2"/>
      <feFlood/>
      <feComposite operator="in" in2="blur-2"/>
      <feComposite in="SourceGraphic"/>
    </filter>
    <filter id="Path_5" x="0" y="15.565" width="155.355" height="117.254" filterUnits="userSpaceOnUse">
      <feOffset dx="5" dy="5" input="SourceAlpha"/>
      <feGaussianBlur result="blur-3"/>
      <feFlood/>
      <feComposite operator="in" in2="blur-3"/>
      <feComposite in="SourceGraphic"/>
    </filter>
  </defs>
  <g id="Icon_ionic-ios-mail-unread" data-name="Icon ionic-ios-mail-unread" transform="translate(-7.436 42.941) rotate(-16)">
    <g transform="matrix(0.96, 0.28, -0.28, 0.96, 18.98, -39.23)" filter="url(#Path_3)">
      <path id="Path_3-2" data-name="Path 3" d="M64.344,26.547A19.234,19.234,0,1,1,45.109,7.313,19.234,19.234,0,0,1,64.344,26.547Z" transform="translate(94.2 13.8) rotate(-16)" fill="#dd7dff" stroke="#000" stroke-width="5"/>
    </g>
    <g id="Group_1" data-name="Group 1" transform="translate(3.375 13.724)">
      <g transform="matrix(0.96, 0.28, -0.28, 0.96, 15.61, -52.95)" filter="url(#Path_4)">
        <path id="Path_4-2" data-name="Path 4" d="M150.838,36.448a26.7,26.7,0,0,1-6.251-.761L125.593,55.041a.775.775,0,0,0,0,1.122L155.767,88.3a5.2,5.2,0,0,1,0,7.373,5.224,5.224,0,0,1-7.373,0L118.34,63.656a.822.822,0,0,0-1.162,0l-7.333,7.453a32.264,32.264,0,0,1-23,9.7,32.911,32.911,0,0,1-23.482-9.978l-7.053-7.173a.822.822,0,0,0-1.162,0L25.094,95.674a5.224,5.224,0,0,1-7.373,0,5.2,5.2,0,0,1,0-7.373L47.894,56.163a.853.853,0,0,0,0-1.122L4.737,11.123a.79.79,0,0,0-1.362.561V99.561A12.861,12.861,0,0,0,16.2,112.383H157.25a12.861,12.861,0,0,0,12.823-12.823V28.233A26.584,26.584,0,0,1,150.838,36.448Z" transform="translate(-2.82 59.04) rotate(-16)" fill="#dd7dff" stroke="#000" stroke-width="5"/>
      </g>
      <g transform="matrix(0.96, 0.28, -0.28, 0.96, 15.61, -52.95)" filter="url(#Path_5)">
        <path id="Path_5-2" data-name="Path 5" d="M120.193,21.26a26.633,26.633,0,0,1,3.286-12.823H12.16a12.511,12.511,0,0,0-7.934,2.805L67.1,75.237a21.963,21.963,0,0,0,31.336,0l32.258-32.819A26.512,26.512,0,0,1,120.193,21.26Z" transform="translate(-2.14 46.92) rotate(-16)" fill="#dd7dff" stroke="#000" stroke-width="5"/>
      </g>
    </g>
  </g>
</svg>
