<svg id="Component_3_2" data-name="Component 3 – 2" xmlns="http://www.w3.org/2000/svg" xmlns:xlink="http://www.w3.org/1999/xlink" width="115" height="115" viewBox="0 0 115 115">
  <defs>
    <filter id="Rectangle_13" x="0" y="0" width="115" height="115" filterUnits="userSpaceOnUse">
      <feOffset dx="15" dy="15" input="SourceAlpha"/>
      <feGaussianBlur result="blur"/>
      <feFlood/>
      <feComposite operator="in" in2="blur"/>
      <feComposite in="SourceGraphic"/>
    </filter>
  </defs>
  <g transform="matrix(1, 0, 0, 1, 0, 0)" filter="url(#Rectangle_13)">
    <g id="Rectangle_13-2" data-name="Rectangle 13" fill="#fff" stroke="#000" stroke-width="10">
      <rect width="100" height="100" stroke="none"/>
      <rect x="5" y="5" width="90" height="90" fill="none"/>
    </g>
  </g>
  <path id="Icon_awesome-laptop-code" data-name="Icon awesome-laptop-code" d="M26.589,27.28a1.668,1.668,0,0,0,2.359,0L30.128,26.1a1.668,1.668,0,0,0,0-2.359L26.4,20.018l3.723-3.724a1.668,1.668,0,0,0,0-2.359l-1.179-1.179a1.668,1.668,0,0,0-2.359,0l-6.083,6.083a1.668,1.668,0,0,0,0,2.359l6.084,6.083ZM36.6,26.1l1.179,1.179a1.668,1.668,0,0,0,2.359,0L46.221,21.2a1.668,1.668,0,0,0,0-2.359l-6.083-6.083a1.668,1.668,0,0,0-2.359,0L36.6,13.935a1.668,1.668,0,0,0,0,2.359l3.723,3.723L36.6,23.742a1.668,1.668,0,0,0,0,2.359ZM65.058,43.372H39.779a3.287,3.287,0,0,1-3.413,3.336H30.027a3.54,3.54,0,0,1-3.417-3.336H1.668A1.673,1.673,0,0,0,0,45.04v1.668a6.692,6.692,0,0,0,6.673,6.673H60.054a6.692,6.692,0,0,0,6.673-6.673V45.04A1.673,1.673,0,0,0,65.058,43.372ZM60.054,5a5.019,5.019,0,0,0-5-5H11.677a5.019,5.019,0,0,0-5,5V40.036H60.054ZM53.381,33.363H13.345V6.673H53.381Z" transform="translate(16.637 23.309)"/>
</svg>
