<svg xmlns="http://www.w3.org/2000/svg" width="133.321" height="100" viewBox="0 0 133.321 100">
  <path id="Icon_awesome-sass" data-name="Icon awesome-sass" d="M62.878,76.727C62.815,76.852,62.753,76.952,62.878,76.727Zm51.9-18.124a27.323,27.323,0,0,0-12.082,2.812c-1.229-2.479-2.5-4.645-2.708-6.27a16.738,16.738,0,0,1-.229-5.27,44.382,44.382,0,0,1,1.583-5.666c-.021-.229-.292-1.375-2.979-1.4s-5,.521-5.268,1.229a25.588,25.588,0,0,0-1.1,3.979c-.479,2.437-5.372,11.145-8.143,15.686a16.175,16.175,0,0,1-1.854-4.583,16.738,16.738,0,0,1-.229-5.27,44.382,44.382,0,0,1,1.583-5.666c-.021-.229-.292-1.375-2.977-1.4s-5,.521-5.27,1.229S74.535,50.4,73.993,52s-7.06,16.1-8.766,19.873c-.875,1.917-1.625,3.458-2.166,4.5-.083.167-.146.271-.187.354.062-.1.1-.208.1-.167-.458.9-.729,1.4-.729,1.4v.021c-.354.667-.75,1.271-.937,1.271a8.642,8.642,0,0,1,.062-4.146c.979-5.041,3.291-12.874,3.271-13.145-.021-.146.437-1.5-1.521-2.229a2.452,2.452,0,0,0-2.75.458c-.167,0-.292.417-.292.417s2.1-8.833-4.039-8.833c-3.833,0-9.166,4.208-11.787,8.02-1.646.9-5.208,2.833-8.958,4.9-1.437.792-2.916,1.6-4.312,2.375-.1-.1-.187-.208-.292-.312C23.239,58.791,9.474,53.166,10.057,42.479c.208-3.9,1.562-14.124,26.471-26.54C56.943,5.774,73.264,8.565,76.075,14.773c4.041,8.853-8.726,25.331-29.927,27.706-8.081.9-12.328-2.229-13.391-3.4-1.1-1.229-1.271-1.292-1.687-1.062-.687.375-.25,1.458,0,2.1.625,1.646,3.229,4.562,7.664,6.02,3.9,1.271,13.37,1.979,24.825-2.458,12.87-4.958,22.888-18.769,19.95-30.331C80.518,1.608,61.036-2.246,42.615,4.295c-10.976,3.9-22.846,10.02-31.385,18C1.087,31.793-.536,40.063.131,43.521,2.5,55.791,19.415,63.79,26.183,69.706c-.333.187-.646.354-.937.521C21.852,71.914,8.959,78.664,5.732,85.788c-3.646,8.083.6,13.874,3.393,14.665,8.706,2.416,17.619-1.937,22.409-9.083s4.208-16.478,2-20.727c-.021-.062-.062-.1-.083-.167.875-.521,1.771-1.042,2.666-1.562,1.727-1.021,3.414-1.958,4.893-2.771a32.357,32.357,0,0,0-1.75,8.874c-.375,4.583,1.521,10.52,3.979,12.853a4.372,4.372,0,0,0,3.206,1.042c2.875,0,4.166-2.375,5.6-5.208,1.771-3.458,3.333-7.479,3.333-7.479S53.422,87.1,58.776,87.1c1.956,0,3.914-2.521,4.791-3.812v.021s.042-.083.146-.25c.208-.312.312-.5.312-.5V82.5c.792-1.354,2.521-4.458,5.123-9.583,3.375-6.624,6.6-14.895,6.6-14.895a41.923,41.923,0,0,0,1.292,5.375,50.318,50.318,0,0,0,2.791,6.249c-.792,1.083-1.271,1.708-1.271,1.708a.065.065,0,0,0,.021.042c-.625.833-1.333,1.729-2.062,2.6-2.664,3.166-5.833,6.791-6.249,7.833-.5,1.229-.375,2.146.583,2.854a5.064,5.064,0,0,0,3.268.521,14.446,14.446,0,0,0,4.9-1.125,17.124,17.124,0,0,0,4.206-2.208,9.4,9.4,0,0,0,4.041-8.291,17.252,17.252,0,0,0-1.521-5.875c.229-.333.479-.687.708-1.042a110.743,110.743,0,0,0,7.31-12.628,41.921,41.921,0,0,0,1.292,5.375,36.745,36.745,0,0,0,2.373,5.354,22.9,22.9,0,0,0-7.1,9.187c-1.542,4.437-.333,6.437,1.937,6.9a6.99,6.99,0,0,0,3.562-.729,16.553,16.553,0,0,0,4.5-2.312c2.6-1.917,5.123-4.6,4.956-8.249a15.5,15.5,0,0,0-1.125-4.875,25.427,25.427,0,0,1,12.934-1.5c11.6,1.354,13.87,8.6,13.432,11.624a7.7,7.7,0,0,1-3.687,5.208c-.812.5-1.062.687-1,1.062.1.542.479.521,1.167.4a9.05,9.05,0,0,0,6.31-8.062c.333-7.083-6.477-14.874-18.54-14.811ZM25.37,88.746c-3.831,4.187-9.205,5.77-11.516,4.437-2.479-1.442-1.5-7.6,3.227-12.066a61.722,61.722,0,0,1,9.039-6.749c.562-.333,1.375-.833,2.375-1.437.167-.1.25-.146.25-.146.187-.125.4-.229.6-.354A16.627,16.627,0,0,1,25.37,88.742ZM53.36,69.706c-1.333,3.271-4.143,11.6-5.852,11.166-1.458-.375-2.354-6.729-.292-12.978a28.731,28.731,0,0,1,4.562-8.353c2.1-2.354,4.414-3.1,4.956-2.166C57.464,58.6,54.193,67.665,53.36,69.706ZM76.483,80.747c-.562.292-1.083.479-1.333.333-.187-.1.229-.5.229-.5s2.9-3.1,4.041-4.52c.667-.833,1.437-1.812,2.269-2.9,0,.1.021.208.021.333-.027,3.729-3.608,6.249-5.233,7.249Zm17.828-4.062c-.417-.292-.354-1.271,1.042-4.312a16.191,16.191,0,0,1,3.958-5.1,7.537,7.537,0,0,1,.4,2.25c-.021,4.687-3.375,6.437-5.393,7.166Z" transform="translate(0 -1.125)" fill="#ebc30e"/>
</svg>
