<svg xmlns="http://www.w3.org/2000/svg" width="102.564" height="100" viewBox="0 0 102.564 100">
  <path id="Icon_simple-adobexd" data-name="Icon simple-adobexd" d="M84.4.45H18.162A18.147,18.147,0,0,0,0,18.612V82.288A18.147,18.147,0,0,0,18.162,100.45H84.4a18.147,18.147,0,0,0,18.162-18.162V18.612A18.147,18.147,0,0,0,84.4.45ZM98.248,80.621a15.483,15.483,0,0,1-15.47,15.556H19.786A15.539,15.539,0,0,1,4.274,80.664V20.236A15.539,15.539,0,0,1,19.786,4.724H82.735A15.513,15.513,0,0,1,98.248,20.236ZM40.556,47.245,52.521,70.236c.214.342.085.684-.256.684H44.829a.839.839,0,0,1-.9-.556c-2.735-5.641-5.513-11.282-8.376-17.35H35.47c-2.564,5.727-5.385,11.752-8.12,17.393a.821.821,0,0,1-.769.47H19.53c-.427,0-.47-.342-.256-.6L30.983,47.971,19.658,25.407a.345.345,0,0,1,.256-.6h7.35a.673.673,0,0,1,.769.47c2.692,5.641,5.427,11.453,7.991,17.137h.085c2.479-5.641,5.214-11.5,7.863-17.094.214-.342.342-.556.769-.556h6.88c.342,0,.47.256.256.6Zm14.06,6.966c0-9.957,6.624-17.735,17.137-17.735a18.951,18.951,0,0,1,2.222.085V25.236a.428.428,0,0,1,.427-.427h6.752c.342,0,.427.128.427.342V64.382a30.439,30.439,0,0,0,.214,4.188c0,.256-.085.342-.342.47a25.456,25.456,0,0,1-10.94,2.479C61.239,71.561,54.615,65.835,54.615,54.211Zm19.359-10.94a6.463,6.463,0,0,0-2.479-.427c-5.385,0-9.145,4.145-9.145,11.026,0,7.863,3.846,11.026,8.675,11.026a8.062,8.062,0,0,0,2.949-.47V43.271Z" transform="translate(0 -0.45)" fill="#ebc30e"/>
</svg>
